<svg width="52" height="50" viewBox="0 0 52 50" fill="none" xmlns="http://www.w3.org/2000/svg">
<path d="M9.93444 8.1875V12.6181C9.93444 12.6181 4.25139 13.827 4.25139 16.7581V22.5525H9.93444V27.1848H4.25139V33.0018C4.25139 33.0018 4.34016 37.1644 9.93444 37.1644V41.7289C9.93444 41.7289 0 39.6242 0 33.2697V16.332C0 16.332 6.15709e-07 8.1875 9.93444 8.1875Z" fill="white"/>
<path d="M22.6279 0V4.31757C22.6279 4.31757 16.3186 4.36115 16.3186 8.29296V41.0193C16.3186 41.0193 16.1847 45.2998 22.6279 45.2998V49.8788C22.6279 49.8788 12.127 49.1331 12.127 41.0338V8.18966C12.127 8.18966 12.127 0 22.6279 0Z" fill="white"/>
<path d="M24.9253 0L24.9479 49.8804H29.401V4.65329C29.401 4.65329 33.8752 4.96641 33.8752 8.4124V49.8804H38.1718V8.34622C38.1718 8.34622 37.8796 0 29.1089 0H24.9253Z" fill="white"/>
<path d="M40.8567 41.7294L40.8761 9.62122H45.1081V36.6339C45.1081 36.6339 47.9278 36.3708 47.9278 33.4719V9.62122H52.0001V34.7083C52.0001 34.7083 51.7547 41.7278 44.3769 41.7278H40.8567V41.7294Z" fill="white"/>
</svg>
